<svg version="1.0" xmlns="http://www.w3.org/2000/svg" viewBox="64.8 69.2 509.4 501.7"><path d="M437.3 69.7c.9.2 2.5.2 3.5 0 .9-.3.1-.5-1.8-.5-1.9 0-2.7.2-1.7.5zm-21 35.8c0 2.2.2 3 .4 1.7.2-1.2.2-3 0-4-.3-.9-.5.1-.4 2.3zm0 82c0 2.2.2 3 .4 1.7.2-1.2.2-3 0-4-.3-.9-.5.1-.4 2.3zm.1 19.5c0 8.5.2 12 .3 7.7.2-4.2.2-11.2 0-15.5-.1-4.2-.3-.7-.3 7.8zm34.9 4c0 2.5.2 3.5.4 2.2.2-1.2.2-3.2 0-4.5-.2-1.2-.4-.2-.4 2.3zm-1 34c0 2.5.2 3.5.4 2.2.2-1.2.2-3.2 0-4.5-.2-1.2-.4-.2-.4 2.3zm-58 60.7c1.5.2 3.7.2 5 0 1.2-.2 0-.4-2.8-.4-2.7 0-3.8.2-2.2.4zm52 0c1.5.2 3.7.2 5 0 1.2-.2 0-.4-2.8-.4-2.7 0-3.8.2-2.2.4zm34 0c.9.2 2.3.2 3 0 .6-.3-.1-.5-1.8-.5-1.6 0-2.2.2-1.2.5zm49.8 31.9c0 1.1.3 1.4.6.6.3-.7.2-1.6-.1-1.9-.3-.4-.6.2-.5 1.3zm-176.2 5.7c.5.5 1.9.7 3.2.5 2-.3 1.9-.5-.9-.9-2-.3-2.9-.2-2.3.4zm194.4-.6c.9.2 2.5.2 3.5 0 .9-.3.1-.5-1.8-.5-1.9 0-2.7.2-1.7.5zm-181.5 1c.7.3 1.6.2 1.9-.1.4-.3-.2-.6-1.3-.5-1.1 0-1.4.3-.6.6zm11.5 0c2 .2 5.4.2 7.5 0 2-.2.3-.4-3.8-.4s-5.8.2-3.7.4zm27 0c3.1.2 8.3.2 11.5 0 3.1-.2.5-.3-5.8-.3s-8.9.1-5.7.3zm23 0c.9.2 2.5.2 3.5 0 .9-.3.1-.5-1.8-.5-1.9 0-2.7.2-1.7.5zm13 0c1.5.2 3.9.2 5.5 0 1.5-.2.2-.4-2.8-.4s-4.3.2-2.7.4zm13 0c2.6.2 6.7.2 9 0s.2-.3-4.8-.3c-4.9 0-6.8.1-4.2.3zm31 0c2.6.2 6.7.2 9 0s.2-.3-4.8-.3c-4.9 0-6.8.1-4.2.3zm24.5 0c1.8.2 4.5.2 6 0s0-.4-3.3-.4-4.5.2-2.7.4zm15.5 0c.9.2 2.5.2 3.5 0 .9-.3.1-.5-1.8-.5-1.9 0-2.7.2-1.7.5zm20.5 5c.7.3 1.6.2 1.9-.1.4-.3-.2-.6-1.3-.5-1.1 0-1.4.3-.6.6zm-244.6 17.8c0 1.6.2 2.2.5 1.2.2-.9.2-2.3 0-3-.3-.6-.5.1-.5 1.8zm262.1 4c0 3.3.2 4.5.4 2.7.2-1.8.2-4.5 0-6s-.4 0-.4 3.3zm-262 5.5c0 2.5.2 3.5.4 2.2.2-1.2.2-3.2 0-4.5-.2-1.2-.4-.2-.4 2.3zm262 12c0 3 .2 4.3.4 2.7.2-1.5.2-3.9 0-5.5-.2-1.5-.4-.2-.4 2.8zm-.2 12.6c0 1.1.3 1.4.6.6.3-.7.2-1.6-.1-1.9-.3-.4-.6.2-.5 1.3zM288 411c-.9.6-1 1-.3 1 .6 0 1.5-.5 1.8-1 .8-1.2.4-1.2-1.5 0zm-35.2.7c1.2.2 3 .2 4 0 .9-.3-.1-.5-2.3-.4-2.2 0-3 .2-1.7.4zm-37 3c1.8.2 4.5.2 6 0s0-.4-3.3-.4-4.5.2-2.7.4zm30 2c.6.2 1.8.2 2.5 0 .6-.3.1-.5-1.3-.5-1.4 0-1.9.2-1.2.5zm-62.4 2.5-1.9 2.3 2.3-1.9c2.1-1.8 2.7-2.6 1.9-2.6-.2 0-1.2 1-2.3 2.2zm92.4-1.5c.6.2 1.8.2 2.5 0 .6-.3.1-.5-1.3-.5-1.4 0-1.9.2-1.2.5zm285.5 9.3c0 3 .2 4.3.4 2.7.2-1.5.2-3.9 0-5.5-.2-1.5-.4-.2-.4 2.8zm0 13.5c0 3.3.2 4.5.4 2.7.2-1.8.2-4.5 0-6s-.4 0-.4 3.3zm-372.1 9c0 1.6.2 2.2.5 1.2.2-.9.2-2.3 0-3-.3-.6-.5.1-.5 1.8zm372.1 5c0 3.3.2 4.5.4 2.7.2-1.8.2-4.5 0-6s-.4 0-.4 3.3zm0 12c0 3.3.2 4.5.4 2.7.2-1.8.2-4.5 0-6s-.4 0-.4 3.3zm0 18.5c0 3.6.2 5 .4 3.2.2-1.7.2-4.7 0-6.5-.2-1.7-.4-.3-.4 3.3zm-396.5-4.3c1.2.2 3 .2 4 0 .9-.3-.1-.5-2.3-.4-2.2 0-3 .2-1.7.4zm-57 2c1.2.2 3 .2 4 0 .9-.3-.1-.5-2.3-.4-2.2 0-3 .2-1.7.4zm38.5 3c.9.2 2.5.2 3.5 0 .9-.3.1-.5-1.8-.5-1.9 0-2.7.2-1.7.5zm12 0c1.5.2 3.7.2 5 0 1.2-.2 0-.4-2.8-.4-2.7 0-3.8.2-2.2.4zm403 17.3c0 3.6.2 5 .4 3.2.2-1.7.2-4.7 0-6.5-.2-1.7-.4-.3-.4 3.3zm-484.2 1.6c0 1.1.3 1.4.6.6.3-.7.2-1.6-.1-1.9-.3-.4-.6.2-.5 1.3zm484.2 12.9c0 3.8.2 5.3.4 3.2.2-2 .2-5.2 0-7-.2-1.7-.4-.1-.4 3.8zM77.2 523c0 1.4.2 1.9.5 1.2.2-.6.2-1.8 0-2.5-.3-.6-.5-.1-.5 1.3zm484.1 11.5c0 4.4.2 6.1.4 3.7.2-2.3.2-5.9 0-8-.2-2-.4-.1-.4 4.3zm-483 0c0 2.7.2 3.8.4 2.2.2-1.5.2-3.7 0-5-.2-1.2-.4 0-.4 2.8zm-.2 12.1c0 1.1.3 1.4.6.6.3-.7.2-1.6-.1-1.9-.3-.4-.6.2-.5 1.3zm483.2 2.4c0 2.5.2 3.5.4 2.2.2-1.2.2-3.2 0-4.5-.2-1.2-.4-.2-.4 2.3zm-21.5 16.7c.6.2 1.8.2 2.5 0 .6-.3.1-.5-1.3-.5-1.4 0-1.9.2-1.2.5zm8 0c.7.3 1.6.2 1.9-.1.4-.3-.2-.6-1.3-.5-1.1 0-1.4.3-.6.6z" fill="#333"/><path d="M115.3 565.7c2 .2 5.4.2 7.5 0 2-.2.3-.4-3.8-.4s-5.8.2-3.7.4zm20.5 0c2.3.2 5.9.2 8 0 2-.2.1-.4-4.3-.4-4.4 0-6.1.2-3.7.4zm28.9 0c1.8.2 5 .2 7 0 2.1-.2.7-.4-3.2-.4-3.8 0-5.5.2-3.8.4zm32.6 0c2 .2 5.4.2 7.5 0 2-.2.3-.4-3.8-.4s-5.8.2-3.7.4zm23 0c2 .2 5.4.2 7.5 0 2-.2.3-.4-3.8-.4s-5.8.2-3.7.4zm30.5 0c2.3.2 5.9.2 8 0 2-.2.1-.4-4.3-.4-4.4 0-6.1.2-3.7.4zm18.5 0c2 .2 5.4.2 7.5 0 2-.2.3-.4-3.8-.4s-5.8.2-3.7.4zm19.5 0c2.3.2 5.9.2 8 0 2-.2.1-.4-4.3-.4-4.4 0-6.1.2-3.7.4zm28.5 0c2 .2 5.4.2 7.5 0 2-.2.3-.4-3.8-.4s-5.8.2-3.7.4zm24 0c2 .2 5.4.2 7.5 0 2-.2.3-.4-3.8-.4s-5.8.2-3.7.4zm24.5 0c2.3.2 5.9.2 8 0 2-.2.1-.4-4.3-.4-4.4 0-6.1.2-3.7.4zm20.5 0c2 .2 5.4.2 7.5 0 2-.2.3-.4-3.8-.4s-5.8.2-3.7.4zm31 0c2 .2 5.4.2 7.5 0 2-.2.3-.4-3.8-.4s-5.8.2-3.7.4zm31 0c2 .2 5.4.2 7.5 0 2-.2.3-.4-3.8-.4s-5.8.2-3.7.4zm25 0c2 .2 5.4.2 7.5 0 2-.2.3-.4-3.8-.4s-5.8.2-3.7.4zm28 0c2 .2 5.4.2 7.5 0 2-.2.3-.4-3.8-.4s-5.8.2-3.7.4zm28.5 0c1.2.2 3.2.2 4.5 0 1.2-.2.2-.4-2.3-.4s-3.5.2-2.2.4z" fill="#003"/><path d="M437.5 70c-3.3.3-7.4 1.3-9.1 2.2-3.5 1.9-10.4 10.3-10.4 12.7 0 1-1 1.7-2.7 1.8-9.7.8-46.1.4-64.3-.8-11.8-.7-32.5-1.3-46-1.3-22.8-.1-25.1.1-32.8 2.3-17.1 4.9-19.9 12.2-9.8 25.8 5.8 7.8 19.7 21 32.9 31.2 11.5 8.8 12.7 10.3 12.7 15 0 6.7-1.7 8.7-15.5 19.1-4.9 3.7-11.1 8.7-13.6 11.1-2.5 2.4-7.2 6.7-10.5 9.5-10.7 9.2-14.8 18.2-10.7 23.3 2.4 3 12 6.7 21.2 8.3 9.3 1.5 52.7 1.5 75.6-.1 25.8-1.8 55.6-2.4 58.8-1.2l2.7 1.1v68.8l-24.2.5c-27.2.5-33 1.6-42.5 8.1-9.1 6.2-11.9 13-11 26.9.6 8.6.5 8.8-1.5 8.1-1.2-.3-6.4-.6-11.7-.6-7.4 0-10.9.5-15.2 2.1-10 3.8-16.7 10.4-20.1 19.8-3.5 9.6-3.6 34.6-.2 46.2l.7 2.4-38.4-.8c-33.5-.6-39.6-.5-47.4.9-16.7 3.1-20.7 5.2-25.1 13.6-1.7 3.1-1.9 6-1.9 28.2 0 13.5-.3 25-.7 25.4-1.1 1-10.4 1-44.8 0-26.6-.8-30.3-.7-37.5.9-20.4 4.4-29.7 13.8-29.7 29.9 0 14.1 1 39.2 1.7 42.1 1.1 4.7 5.2 11.2 8.4 13.4 4.8 3.4 15.4 5.4 24.6 4.5 4.4-.4 108.1-.8 230.5-.8l222.5-.1 5.5-2.3c6.3-2.6 11.7-7.1 12.5-10.4.6-2.8 1.1-7.7 2.5-22.3 1.3-15.3 1.5-40.9.8-113.6-.6-68.8-.3-65.2-7-71.6-4.7-4.6-9.5-6.2-18.5-6.4l-7.8-.2v-12.2c0-11.7-.1-12.3-3-17.1-2.5-4.1-4.2-5.5-10.7-8.7-10-4.9-19.6-6-45.1-5.2l-18.7.6v-107c.1-117.7.5-109.6-5.9-116.4-5.1-5.6-10.8-7.5-19.6-6.7zm5.8 10.8c3.2 3.3 6 14.9 7.6 31.2 1 10.6.8 115.6-.3 134-.7 13.2-.8 50.4 0 52.4.5 1.4-.7 1.6-10.9 1.6h-11.6l-.1-106.5V87l4.1-4.5c4.9-5.3 7.4-5.7 11.2-1.7zm-26.5 77.3.2 65-57.2.1c-31.5.1-63.4.1-70.8.1-15.2.1-18.8-1-21.5-6.4-1.5-2.9-1.5-3.2 1-7.5 2.8-4.8 11.7-12.3 26.7-22.6 5.1-3.5 11.6-8.6 14.5-11.5 5.5-5.4 10.3-13.9 10.3-18.4 0-5.9-9.2-17.2-21-25.9-24.2-17.8-31-25.1-31-33.8V93h148.5l.3 65.1zM458.5 306c3.9 0 15.2-.2 25.1-.6 20.3-.8 28.1.1 35.1 4.2 7.9 4.5 11.5 15.3 9.9 28.7l-.7 5.6h-88.4l-88.3-.1-.1-12c-.1-6.6.3-13.7.9-15.9 1.4-5.2 4.8-8.9 8.8-9.7 2.8-.6 75.4-.8 97.7-.2zm90.7 43.1c2.1.5 5.5 2.6 7.7 4.7 3.7 3.5 3.9 4.1 4.5 11.2.3 4.1.5 48.9.3 99.5-.2 90.7-.2 92-2.2 95.5-1.3 2.1-3.3 3.9-5.3 4.5-2.1.8-76.2 1.1-233.4 1-192.2-.1-230.7-.3-232.8-1.4-8.8-4.9-10.5-13-10.5-51.1 0-11.3.3-14.1 1.9-17 2.3-4.4 6.3-8.8 9.6-10.5 4.5-2.3 21.8-3.8 30.1-2.6 15.1 2.2 36.7 2.8 50.8 1.5 9.8-.8 14.4-3.2 17.3-8.7 2.4-4.6 2.7-9.2 1.8-35.7-.4-13 .4-17 3.8-19.7 2.4-2 8-4.4 11.1-4.8 15.3-1.9 15.3-1.9 50.9 1.7 14.9 1.5 28.1.1 35.8-3.8 9.2-4.7 10.6-10.4 8.9-36.4-1.2-17.6 1.9-26.1 10.5-28.6 4.4-1.2 234.3-.6 239.2.7z"/><path d="M536.8 570.7c1.2.2 3.2.2 4.5 0 1.2-.2.2-.4-2.3-.4s-3.5.2-2.2.4z" fill="#252525" fill-opacity=".27"/><path d="M284.8 223.7c.7.3 1.6.2 1.9-.1.4-.3-.2-.6-1.3-.5-1.1 0-1.4.3-.6.6zm-54.5 187c.9.2 2.3.2 3 0 .6-.3-.1-.5-1.8-.5-1.6 0-2.2.2-1.2.5z" fill="#282828" fill-opacity=".2"/><path d="M379.3 93.7c1.5.2 3.7.2 5 0 1.2-.2 0-.4-2.8-.4-2.7 0-3.8.2-2.2.4zm-143.5 317c.7.3 1.6.2 1.9-.1.4-.3-.2-.6-1.3-.5-1.1 0-1.4.3-.6.6zm29 1c.6.2 1.8.2 2.5 0 .6-.3.1-.5-1.3-.5-1.4 0-1.9.2-1.2.5z" fill="#252525" fill-opacity=".13"/><path d="M428.2 98c0 1.9.2 2.7.5 1.7.2-.9.2-2.5 0-3.5-.3-.9-.5-.1-.5 1.8zm.1 12c0 4.1.2 5.8.4 3.7.2-2 .2-5.4 0-7.5-.2-2-.4-.3-.4 3.8zm0 15c0 4.1.2 5.8.4 3.7.2-2 .2-5.4 0-7.5-.2-2-.4-.3-.4 3.8zm22.9 3.5c0 1.6.2 2.2.5 1.2.2-.9.2-2.3 0-3-.3-.6-.5.1-.5 1.8zm-22.8 23c0 9.9.2 13.8.3 8.7.2-5.1.2-13.2 0-18-.1-4.8-.3-.6-.3 9.3zm-.1 25c0 3.8.2 5.3.4 3.2.2-2 .2-5.2 0-7-.2-1.7-.4-.1-.4 3.8zm0 19c0 4.4.2 6.1.4 3.7.2-2.3.2-5.9 0-8-.2-2-.4-.1-.4 4.3zm23 5c0 2.7.2 3.8.4 2.2.2-1.5.2-3.7 0-5-.2-1.2-.4 0-.4 2.8zM428.4 218c0 6.9.1 9.7.3 6.2.2-3.4.2-9 0-12.5-.2-3.4-.3-.6-.3 6.3zm-.1 20.5c0 3.8.2 5.3.4 3.2.2-2 .2-5.2 0-7-.2-1.7-.4-.1-.4 3.8zm21.9-3.5c0 1.4.2 1.9.5 1.2.2-.6.2-1.8 0-2.5-.3-.6-.5-.1-.5 1.3zm-21.9 19.5c0 3.8.2 5.3.4 3.2.2-2 .2-5.2 0-7-.2-1.7-.4-.1-.4 3.8zm0 15c0 3.8.2 5.3.4 3.2.2-2 .2-5.2 0-7-.2-1.7-.4-.1-.4 3.8zm21 10.5c0 4.1.2 5.8.4 3.7.2-2 .2-5.4 0-7.5-.2-2-.4-.3-.4 3.8zm-21 8c0 4.1.2 5.8.4 3.7.2-2 .2-5.4 0-7.5-.2-2-.4-.3-.4 3.8zm20.8 1.6c0 1.1.3 1.4.6.6.3-.7.2-1.6-.1-1.9-.3-.4-.6.2-.5 1.3zm-20.8 8.4c.2 1.1 1.8 1.5 5.3 1.6l4.9.1-4.5-.4c-2.4-.2-4.8-1-5.3-1.6-.6-.8-.7-.7-.4.3zm-5 8.7c.9.2 2.5.2 3.5 0 .9-.3.1-.5-1.8-.5-1.9 0-2.7.2-1.7.5zm104.8 21.9c0 1.1.3 1.4.6.6.3-.7.2-1.6-.1-1.9-.3-.4-.6.2-.5 1.3z" fill="#666"/><path d="M451.2 135.5c0 1.6.2 2.2.5 1.2.2-.9.2-2.3 0-3-.3-.6-.5.1-.5 1.8zm0 53.5c0 1.9.2 2.7.5 1.7.2-.9.2-2.5 0-3.5-.3-.9-.5-.1-.5 1.8zm-1 38.5c0 1.6.2 2.2.5 1.2.2-.9.2-2.3 0-3-.3-.6-.5.1-.5 1.8zm-1 35c0 1.6.2 2.2.5 1.2.2-.9.2-2.3 0-3-.3-.6-.5.1-.5 1.8zm-1.4 37.2c.7.3 1.6.2 1.9-.1.4-.3-.2-.6-1.3-.5-1.1 0-1.4.3-.6.6zM351.2 327c0 1.9.2 2.7.5 1.7.2-.9.2-2.5 0-3.5-.3-.9-.5-.1-.5 1.8zm179.6 21.7c.6.2 1.8.2 2.5 0 .6-.3.1-.5-1.3-.5-1.4 0-1.9.2-1.2.5z" fill="#999"/><path d="M451.3 143c0 2.5.2 3.5.4 2.2.2-1.2.2-3.2 0-4.5-.2-1.2-.4-.2-.4 2.3zm-.1 39c0 1.4.2 1.9.5 1.2.2-.6.2-1.8 0-2.5-.3-.6-.5-.1-.5 1.3zm-2 75c0 1.4.2 1.9.5 1.2.2-.6.2-1.8 0-2.5-.3-.6-.5-.1-.5 1.3zm-91.7 44.1c-2.8 1.9-2.8 2-.5 1.3 4.2-1.1 7-2.3 7-2.9 0-1.1-3.7-.2-6.5 1.6zm167.9 1.4c1.1.8 2.5 1.5 3 1.5.6 0 .2-.7-.8-1.5-1.1-.8-2.5-1.5-3-1.5-.6 0-.2.7.8 1.5zM360 307.3c-5.3 1.8-8 7.9-8 18 0 6.2.3 7.7 1.3 7 .6-.5 3.9-2.4 7.2-4.2l6-3.2-7.3 6.8c-7.9 7.4-9.5 11.3-4.6 11.3 1.4 0 2.3-.4 2-.8-.6-.9 4.3-.7 8.6.3 2.1.6 4-.1 8.5-2.8 7.3-4.3 11.5-6.4 9.2-4.5-.8.7-3.3 2.8-5.4 4.5l-4 3.3h6.8c3.8 0 7.7-.5 8.8-1 1.3-.8 2.5-.7 4 0 1.2.7 2.5.8 3.2.2.7-.5 3.5-2.1 6.2-3.6l5-2.7-4 3.5-4 3.6H410c10.2 0 10.6-.1 16.3-3.5 3.2-1.9 7.2-4.2 9-5.1 3.4-1.7 3.6-1.9-6.8 6.8-1.8 1.6-1.9 1.7-.2 1.8 1 0 2.8-.5 3.9-1.1 1.5-.8 2.6-.8 4.2 0 1.9 1 24.3.9 32.6-.1 2.2-.3 7-2.8 24-12.6 1.4-.8-1 2-5.2 6.2L480 343h7.5c4.1 0 8.5-.5 9.9-1.1 1.9-.9 2.9-.9 3.9-.1s2.1.6 4.5-.8c3.2-2 4.3-1.5 2 .8-1.6 1.6 6.1 1.7 9.7 0 1.9-.9 2.8-.9 3.7 0 .7.7 2.2 1.2 3.4 1.2 1.6 0 2.3-.8 2.8-3.1.9-4.7.8-6.1-.6-5.3-1 .6-1 .4 0-.7 2.1-2.2 1.3-13.9-1-13.9-.6 0-5.2 2.5-10.3 5.5-5.2 3-9.6 5.5-9.9 5.5-.3 0 3.5-3.9 8.4-8.6l9-8.7-3.2-2.3c-5.1-3.8-6.3-3.8-13.3.1-3.6 2-6.5 3.5-6.5 3.3 0-.3 2.1-1.9 4.6-3.8 5.5-3.9 4.7-5-4.1-5-5.6 0-6.6.4-21.6 9-14.2 8.2-21.3 11.7-14.8 7.2 3.4-2.3 18.9-15.4 18.9-16 0-.2-3.9-.1-8.7.2-8.5.7-9.2.9-21.3 7.8-6.9 3.9-12.9 7.3-13.5 7.6-1.6.8.4-1 8.9-7.8 8.8-7.1 8.7-7.8-1.3-7.9-4.9-.1-6.5.5-17 6.5-6.4 3.7-13.1 7.5-14.8 8.6-1.8 1.1-3.3 1.7-3.3 1.5 0-.3 4.1-3.9 9.1-8.1l9.1-7.6-6.4-.2c-3.4-.1-7.2-.1-8.3-.1-1.1.1-9.2 4.3-18 9.3-8.8 5.1-17.6 10.1-19.5 11.2-2.2 1.2.9-2.3 8.4-9.6l11.9-11.6h-16.8l-11.2 6.5c-6.2 3.6-11.4 6.5-11.7 6.5-.3 0 1-2.6 2.9-5.8 4.8-7.8 4.7-8-1.5-5.9zm-18 42.2c0 1.3.4 1.4 2 .5 1.1-.6 2-1.3 2-1.5 0-.3-.9-.5-2-.5s-2 .7-2 1.5zm23.3.2c-2 1.3-3.3 6.3-1.7 6.3.5 0 12.5-6.8 13.3-7.6 1.3-1.3-9.8 0-11.6 1.3zm26.5.9c-2.1 1.3-3.8 3-3.8 3.7 0 1.9 2.1 3.7 4.4 3.7 1.7 0 17.6-8.6 17.6-9.6 0-.2-3.3-.4-7.2-.3-6 0-8 .5-11 2.5zm47.6-.3c-2 1.8-2.5 2.9-2 4.5.4 1.2 1.2 2.2 1.7 2.2 1.2 0 14.9-7.9 14.9-8.5 0-.3-2.7-.5-5.9-.5-4.8 0-6.5.5-8.7 2.3zm32.7.3c-2.3 3-2.6 4-1.1 4.9.9.5 14-6.1 14-7.1 0-.2-2.4-.4-5.4-.4-4.7 0-5.7.4-7.5 2.6zm28.4-.1-3 2.5 3.8-2.1c2-1.1 3.7-2.3 3.7-2.5 0-1-1.7-.2-4.5 2.1zm25.1-.3c-1 3.8-.7 3.9 3.4 1.6 3.2-1.9 3.6-2.4 2.2-3-3.2-1.3-5-.8-5.6 1.4z" fill="#9CC"/><path d="M429 117.1c0 .5.5.7 1 .4.6-.3 1-.8 1-1.1 0-.2-.4-.4-1-.4-.5 0-1 .5-1 1.1zm22.3 35.9c0 3.6.2 5 .4 3.2.2-1.7.2-4.7 0-6.5-.2-1.7-.4-.3-.4 3.3zm0 16c0 2.5.2 3.5.4 2.2.2-1.2.2-3.2 0-4.5-.2-1.2-.4-.2-.4 2.3zM433 199.9c0 .7-.4 1-.8.7-.5-.3-.9.2-.9 1 0 1.3.2 1.3 1.6 0 .8-.9 1.2-1.9.8-2.2-.4-.4-.7-.2-.7.5zm17.2 19.1c0 1.4.2 1.9.5 1.2.2-.6.2-1.8 0-2.5-.3-.6-.5-.1-.5 1.3zm-1.1 33.6c0 1.1.3 1.4.6.6.3-.7.2-1.6-.1-1.9-.3-.4-.6.2-.5 1.3z" fill="#CCC"/><path d="M435.3 80.5c-4.1 2.8-6.3 7.8-6.3 14 0 5 .2 5.6 1.5 4.5 2.4-2 2.7-.6.5 2.3-1.5 1.9-2 4-2 8.6 0 4.1.4 6.1 1.2 6.1.9 0 .9.3 0 1.2-.7.7-1.2 3.8-1.2 7.1 0 5.5.1 5.8 2.1 5.2 1.8-.6 1.9-.5 1 1.3-.6 1.2-1.6 2.4-2.1 2.7-1 .6-1.4 48.5-.4 48.5.3 0 1.9-.7 3.7-1.7 3.6-1.8 3.7-2.1-2 5-1.9 2.3-2.3 4.1-2.3 9.3 0 6.8.1 7 3.1 5.4 2.7-1.5 2.4.2-.6 3-2.4 2.2-2.5 2.8-2.5 14.2 0 11.9 0 11.9 2.3 11.3l2.2-.6-2.2 1.7c-2 1.4-2.3 2.5-2.3 8.6 0 6.2.2 6.9 1.7 6.4 1.6-.6 1.6-.6 0 1.1-1.4 1.6-1.6 4.3-1.6 16.1 0 12.8.6 16.2 2.4 13.2.3-.6 1.1-1 1.7-1 .7 0 0 1.3-1.5 2.8-2.6 2.7-2.7 3.3-2.6 12.5l.1 9.7h20.3l-.3-13.1c-.2-9.9-.6-12.9-1.5-12-2.1 2.1-3.1 1.1-1-1.1 1.8-2 2.1-4.1 2.7-17.7.5-14.1.5-15.3-1.1-14.7-1.5.6-1.5.5.1-1.2 1.3-1.5 1.7-3.7 1.6-9.3 0-4.1.3-13.2.6-20.3l.7-12.8-2.3 1.2c-2.4 1.3-2.2.3.7-3.1 1-1.2 1.3-3.7 1.1-8.4l-.3-6.7-3.8 2.6c-5.5 3.8-5.6 3.2-.3-2.4l4.6-4.9v-50.2l-2.2 1.2-2.3 1.2 2.2-2.4c2-2.3 2.1-2.9 1.2-11.9-1.4-15.6-1.8-17.3-3.7-15.8-1.6 1.1-1.6 1.1-.1-.6 1.7-1.9 1.4-5-1.3-11.9l-1-2.7-3.3 2c-4.4 2.7-4.8 2.5-2.4-1.5 2.3-3.9 1.1-4.7-2.8-2zm-6.9 228.7-1.9 2.1 3-1.8c4.1-2.6 4-2.5 2.3-2.5-.8 0-2.3 1-3.4 2.2zm25.1 1.3-4 3.5 4.7-2.6c5-2.7 6.8-4.4 4.6-4.4-.7 0-3.1 1.6-5.3 3.5z" fill="#CFF"/><path d="M449.2 267c0 1.4.2 1.9.5 1.2.2-.6.2-1.8 0-2.5-.3-.6-.5-.1-.5 1.3zm-.1 25.6c0 1.1.3 1.4.6.6.3-.7.2-1.6-.1-1.9-.3-.4-.6.2-.5 1.3zm-9.8 7.1c.9.2 2.5.2 3.5 0 .9-.3.1-.5-1.8-.5-1.9 0-2.7.2-1.7.5zm57.5 6c.6.2 1.8.2 2.5 0 .6-.3.1-.5-1.3-.5-1.4 0-1.9.2-1.2.5zm-42 1c.7.3 1.6.2 1.9-.1.4-.3-.2-.6-1.3-.5-1.1 0-1.4.3-.6.6zm14 0c.6.2 1.8.2 2.5 0 .6-.3.1-.5-1.3-.5-1.4 0-1.9.2-1.2.5zm-117.7 24.9c0 1.1.3 1.4.6.6.3-.7.2-1.6-.1-1.9-.3-.4-.6.2-.5 1.3zm150.4 17.3c-.3.5-.2 1.2.3 1.5.5.3.9-.1.9-.9 0-1.7-.3-1.9-1.2-.6z" fill="#699"/><path d="M329.8 222.7c.6.2 1.8.2 2.5 0 .6-.3.1-.5-1.3-.5-1.4 0-1.9.2-1.2.5zm25.5 0c1.5.2 3.9.2 5.5 0 1.5-.2.2-.4-2.8-.4s-4.3.2-2.7.4zm27.5 0c.6.2 1.8.2 2.5 0 .6-.3.1-.5-1.3-.5-1.4 0-1.9.2-1.2.5zm15 6c.6.2 1.8.2 2.5 0 .6-.3.1-.5-1.3-.5-1.4 0-1.9.2-1.2.5z" fill="#252525" fill-opacity=".4"/><path d="M387.8 298.7c.6.2 1.8.2 2.5 0 .6-.3.1-.5-1.3-.5-1.4 0-1.9.2-1.2.5zm77.5 1c.9.2 2.5.2 3.5 0 .9-.3.1-.5-1.8-.5-1.9 0-2.7.2-1.7.5z" fill="#272727" fill-opacity=".33"/><path d="M429.9 132.7c-1.3 1.6-1.2 1.7.4.4 1.6-1.3 2.1-2.1 1.3-2.1-.2 0-1 .8-1.7 1.7zm21.3 30.3c0 1.4.2 1.9.5 1.2.2-.6.2-1.8 0-2.5-.3-.6-.5-.1-.5 1.3z" fill="#CCF"/><path d="M338.8 222.7c2.3.2 6.1.2 8.5 0 2.3-.2.4-.4-4.3-.4s-6.6.2-4.2.4zm29.5 0c2.6.2 6.7.2 9 0s.2-.3-4.8-.3c-4.9 0-6.8.1-4.2.3zm23.5 0c2.3.2 6.1.2 8.5 0 2.3-.2.4-.4-4.3-.4s-6.6.2-4.2.4zm18 0c1.2.2 3.2.2 4.5 0 1.2-.2.2-.4-2.3-.4s-3.5.2-2.2.4zm-116 1c.7.3 1.6.2 1.9-.1.4-.3-.2-.6-1.3-.5-1.1 0-1.4.3-.6.6z" fill="#933"/><path d="M268.7 93.7c-.4.3-.7 1.1-.7 1.7 0 .7.3.7.8-.1.4-.6 2.1-1.3 3.7-1.6l3-.4-3.1-.2c-1.7 0-3.4.2-3.7.6zm68.6 0c2.6.2 6.7.2 9 0s.2-.3-4.8-.3c-4.9 0-6.8.1-4.2.3zm25 0c2.6.2 6.8.2 9.5 0 2.6-.2.4-.3-4.8-.3s-7.4.1-4.7.3zm32 0c4.3.2 11 .2 15 0 4-.1.5-.3-7.8-.3-8.2 0-11.5.2-7.2.3zM280 115.4c0 .2.8 1 1.8 1.7 1.5 1.3 1.6 1.2.3-.4s-2.1-2.1-2.1-1.3zm29 22.9c0 .2 1.5 1.6 3.3 3.3l3.2 2.9-2.9-3.3c-2.8-3-3.6-3.7-3.6-2.9zm11.2 19.2c0 1.6.2 2.2.5 1.2.2-.9.2-2.3 0-3-.3-.6-.5.1-.5 1.8zm-46.8 46.7-2.9 3.3 3.3-2.9c3-2.8 3.7-3.6 2.9-3.6-.2 0-1.6 1.5-3.3 3.2zm42.9 17.5c1.5.2 3.9.2 5.5 0 1.5-.2.2-.4-2.8-.4s-4.3.2-2.7.4zm-13.5 1c.7.3 1.6.2 1.9-.1.4-.3-.2-.6-1.3-.5-1.1 0-1.4.3-.6.6zm-13 1c.6.2 1.8.2 2.5 0 .6-.3.1-.5-1.3-.5-1.4 0-1.9.2-1.2.5z" fill="#C33"/><path d="M371.9 86.1c-1 .6-.7.9 1.4.9 2.9 0 3.5-.5 1.4-1.3-.8-.3-2-.1-2.8.4zM401 86c-1.1.7-.6 1 2 1s3.1-.3 2-1c-.8-.5-1.7-1-2-1-.3 0-1.2.5-2 1zm-114 7.9c-1.4.5-4.9 2.3-7.9 4l-5.3 3.2.6-3.6c.7-3.4.6-3.5-2.2-3.5-1.7 0-3.2.6-3.5 1.4-.9 2.3 1.1 8.3 3.9 11.6 2.5 2.9 2.6 2.9 5.6 1.4l3.1-1.6-2.2 2.8-2.2 2.8 3.8 3.3c2.1 1.8 4.4 3 5.1 2.8.7-.3 1.1-.1.7.4-.3.5 1.2 2.3 3.2 4l3.7 3.1 4.6-2.7c2.5-1.4 6.1-3.5 8-4.6 2.9-1.7 2.6-1.2-2 3.1-3 2.8-5.8 5.1-6.2 5.2-1.8.1-.5 1.9 3.2 4.5l3.9 2.7 11.8-6.7c6.5-3.7 12.3-7 12.8-7.2 1.2-.6-.8 1.1-11.8 10.1l-8.5 7 4 4.5c2.2 2.5 4.6 5.8 5.4 7.3.8 1.6 1.7 2.8 2 2.8.6 0 12.9-7 17.2-9.8 1.2-.8 2.2-1.2 2.2-1 0 .3-4.2 3.5-9.4 7.1-8.9 6.3-9.4 6.9-10 11-.4 2.3-1.5 5.7-2.6 7.4l-1.9 3.1 8.7-5c18-10.4 16.6-9-9.3 8.7-33 22.7-42.2 30.1-46.5 37-2.1 3.3-1.8 7.3.4 5.7 2.2-1.7 12.6-7.3 12.6-6.8 0 .2-2.7 2.1-6 4.1-3.4 2.1-5.9 4.2-5.7 4.9.4 1.3 5 3.7 7.5 3.8 1.3.1 32.3-17.4 61.2-34.4 7.5-4.5.5.6-22 16-31.2 21.3-29.3 19.4-18.8 18.8 4.9-.3 10.1-1.2 12-2.1 2-1 2.7-1.1 1.6-.3-1.4 1.2-.3 1.4 7.1 1.2l8.7-.1 14.5-8.3c7.9-4.5 15.9-9.1 17.7-10.2 6.9-4.2 2.6-.5-10.4 8.9l-13.7 9.8 8.2.3 8.2.3 17.7-10.2c9.7-5.6 18.8-10.9 20.2-11.7 3.3-1.9-3.1 3.8-15.1 13.5l-9.7 7.8 8.5.3c8 .3 8.7.1 14.1-3.1 11.5-6.9 12.4-7 4.4-.3l-4.4 3.6h8.7c6 0 9.5-.5 11.8-1.7 3-1.5 3.1-1.5 1.8 0-1.2 1.5-1 1.7 2.3 1.7h3.6v-23.1c-.1-21.1-.2-23-1.7-22.4-1.5.5-1.5.4 0-1.3 1.4-1.5 1.7-4 1.7-13.5 0-6.4-.2-11.7-.4-11.7-.4 0-13.7 7.6-21.6 12.3-6.2 3.7-2.3.6 9.8-7.7l11.7-8.2.3-12.2c.1-6.7.1-12.2-.1-12.2-.4 0-43.9 25-52.7 30.3-7.7 4.5-.9-.4 25.2-18.3l27.3-18.7.3-6.2c.2-3.3 0-6.1-.3-6.1s-5.4 2.8-11.3 6.1c-13.1 7.6-13 7.5-11.7 6.1.6-.6 6-4.6 12-8.9 7.5-5.4 11.1-8.6 11.3-10.1.3-2.2.2-2.2-14.4-2.2h-14.8l-14 8.1c-7.8 4.5-15.6 9-17.3 10.1-1.8 1.1-3.3 1.7-3.3 1.5 0-.3 5-4.7 11.2-9.9l11.2-9.3-8.3-.3c-8.2-.3-8.3-.3-16.4 4.4-4.5 2.5-9.8 5.5-11.7 6.6l-3.5 2 3-2.9c1.7-1.5 5-4.5 7.4-6.6l4.5-3.7h-8.9c-7.2 0-9.4.4-12.4 2.2l-3.6 2.1 2.4-2.6 2.4-2.7h-8.2c-7.7 0-8.8.3-14 3.4-3.1 1.8-6.7 3.9-8.1 4.6l-2.5 1.3 2.6-2.9c5.8-6.7 5.9-6.4-2.2-6.3-4.1 0-8.5.4-9.9.8zm-23.8 133.7c.8.9 2.3 1.4 3.3 1.2 1.2-.2.7-.7-1.6-1.5-3-1.2-3.2-1.1-1.7.3zm125.6 2.1c.6.2 1.8.2 2.5 0 .6-.3.1-.5-1.3-.5-1.4 0-1.9.2-1.2.5zm20 0c.6.2 1.8.2 2.5 0 .6-.3.1-.5-1.3-.5-1.4 0-1.9.2-1.2.5z" fill="#F33"/><path d="M358.8 343.7c1.2.2 3 .2 4 0 .9-.3-.1-.5-2.3-.4-2.2 0-3 .2-1.7.4zm29.5 0c.9.2 2.5.2 3.5 0 .9-.3.1-.5-1.8-.5-1.9 0-2.7.2-1.7.5zm44 0c.9.2 2.5.2 3.5 0 .9-.3.1-.5-1.8-.5-1.9 0-2.7.2-1.7.5zm34.5 0c1.2.2 3 .2 4 0 .9-.3-.1-.5-2.3-.4-2.2 0-3 .2-1.7.4zm31 0c1.2.2 3 .2 4 0 .9-.3-.1-.5-2.3-.4-2.2 0-3 .2-1.7.4zm19.5 0c.9.2 2.5.2 3.5 0 .9-.3.1-.5-1.8-.5-1.9 0-2.7.2-1.7.5zm43.9 52.3c0 1.9.2 2.7.5 1.7.2-.9.2-2.5 0-3.5-.3-.9-.5-.1-.5 1.8zm-261.1 1.6c0 1.1.3 1.4.6.6.3-.7.2-1.6-.1-1.9-.3-.4-.6.2-.5 1.3zM561.3 410c0 3 .2 4.3.4 2.7.2-1.5.2-3.9 0-5.5-.2-1.5-.4-.2-.4 2.8zm-336.5 4.7c.7.3 1.6.2 1.9-.1.4-.3-.2-.6-1.3-.5-1.1 0-1.4.3-.6.6zm-36.7 18.9c0 1.1.3 1.4.6.6.3-.7.2-1.6-.1-1.9-.3-.4-.6.2-.5 1.3zm0 4c0 1.1.3 1.4.6.6.3-.7.2-1.6-.1-1.9-.3-.4-.6.2-.5 1.3zm348.7 128.1c.7.3 1.6.2 1.9-.1.4-.3-.2-.6-1.3-.5-1.1 0-1.4.3-.6.6zm-423 4c1.2.2 3.2.2 4.5 0 1.2-.2.2-.4-2.3-.4s-3.5.2-2.2.4zm21 0c1.2.2 3.2.2 4.5 0 1.2-.2.2-.4-2.3-.4s-3.5.2-2.2.4zm29 0c1.2.2 3 .2 4 0 .9-.3-.1-.5-2.3-.4-2.2 0-3 .2-1.7.4zm32 0c1.2.2 3.2.2 4.5 0 1.2-.2.2-.4-2.3-.4s-3.5.2-2.2.4zm23 0c1.2.2 3.2.2 4.5 0 1.2-.2.2-.4-2.3-.4s-3.5.2-2.2.4zm31 0c1.2.2 3.2.2 4.5 0 1.2-.2.2-.4-2.3-.4s-3.5.2-2.2.4zm18 0c1.2.2 3.2.2 4.5 0 1.2-.2.2-.4-2.3-.4s-3.5.2-2.2.4zm19 0c1.2.2 3.2.2 4.5 0 1.2-.2.2-.4-2.3-.4s-3.5.2-2.2.4zm29 0c1.2.2 3.2.2 4.5 0 1.2-.2.2-.4-2.3-.4s-3.5.2-2.2.4zm24 0c1.2.2 3.2.2 4.5 0 1.2-.2.2-.4-2.3-.4s-3.5.2-2.2.4zm24 0c1.2.2 3.2.2 4.5 0 1.2-.2.2-.4-2.3-.4s-3.5.2-2.2.4zm21 0c1.2.2 3.2.2 4.5 0 1.2-.2.2-.4-2.3-.4s-3.5.2-2.2.4zm31 0c1.2.2 3.2.2 4.5 0 1.2-.2.2-.4-2.3-.4s-3.5.2-2.2.4zm31 0c1.2.2 3.2.2 4.5 0 1.2-.2.2-.4-2.3-.4s-3.5.2-2.2.4zm25 0c1.2.2 3.2.2 4.5 0 1.2-.2.2-.4-2.3-.4s-3.5.2-2.2.4zm28 0c1.2.2 3.2.2 4.5 0 1.2-.2.2-.4-2.3-.4s-3.5.2-2.2.4z" fill="#033"/><path d="M399.3 87.7c.9.2 2.5.2 3.5 0 .9-.3.1-.5-1.8-.5-1.9 0-2.7.2-1.7.5zm16.8 6.9c0 1.1.3 1.4.6.6.3-.7.2-1.6-.1-1.9-.3-.4-.6.2-.5 1.3zm12 92c0 1.1.3 1.4.6.6.3-.7.2-1.6-.1-1.9-.3-.4-.6.2-.5 1.3zm0 18c0 1.1.3 1.4.6.6.3-.7.2-1.6-.1-1.9-.3-.4-.6.2-.5 1.3zm-131.3 19.1c.7.3 1.6.2 1.9-.1.4-.3-.2-.6-1.3-.5-1.1 0-1.4.3-.6.6zm92 5c1.2.2 3 .2 4 0 .9-.3-.1-.5-2.3-.4-2.2 0-3 .2-1.7.4zm-23 1c.6.2 1.8.2 2.5 0 .6-.3.1-.5-1.3-.5-1.4 0-1.9.2-1.2.5z" fill="#633"/><path d="M373.8 87.7c.7.3 1.6.2 1.9-.1.4-.3-.2-.6-1.3-.5-1.1 0-1.4.3-.6.6zm42.3 34.9c0 1.1.3 1.4.6.6.3-.7.2-1.6-.1-1.9-.3-.4-.6.2-.5 1.3zm.2 19.9c0 2.2.2 3 .4 1.7.2-1.2.2-3 0-4-.3-.9-.5.1-.4 2.3zm.1 19c0 7.1.1 9.9.3 6.2.2-3.7.2-9.6 0-13-.2-3.4-.3-.4-.3 6.8zM268 218.4c0 .2.8 1 1.8 1.7 1.5 1.3 1.6 1.2.3-.4s-2.1-2.1-2.1-1.3z" fill="#300"/><path d="M416.1 112.6c0 1.1.3 1.4.6.6.3-.7.2-1.6-.1-1.9-.3-.4-.6.2-.5 1.3zM310.5 141c1 1.1 2 2 2.3 2 .3 0-.3-.9-1.3-2s-2-2-2.3-2c-.3 0 .3.9 1.3 2zm105.6 37.6c0 1.1.3 1.4.6.6.3-.7.2-1.6-.1-1.9-.3-.4-.6.2-.5 1.3zm0 4c0 1.1.3 1.4.6.6.3-.7.2-1.6-.1-1.9-.3-.4-.6.2-.5 1.3zm-143.2 21.1c-1.3 1.6-1.2 1.7.4.4 1.6-1.3 2.1-2.1 1.3-2.1-.2 0-1 .8-1.7 1.7z" fill="#303"/><g fill="#366" stroke-width="0"><path d="M428.3 91.5c0 2.2.2 3 .4 1.7.2-1.2.2-3 0-4-.3-.9-.5.1-.4 2.3zm-43.5 214.2c1.2.2 3 .2 4 0 .9-.3-.1-.5-2.3-.4-2.2 0-3 .2-1.7.4zM307.5 343c-.7 1.2.2 1.2 3 0 1.9-.8 1.9-.9-.2-.9-1.2-.1-2.5.3-2.8.9zm52.3-.3c.7.3 1.6.2 1.9-.1.4-.3-.2-.6-1.3-.5-1.1 0-1.4.3-.6.6zm30 0c.7.3 1.6.2 1.9-.1.4-.3-.2-.6-1.3-.5-1.1 0-1.4.3-.6.6zm44 0c.7.3 1.6.2 1.9-.1.4-.3-.2-.6-1.3-.5-1.1 0-1.4.3-.6.6zm34 0c.6.2 1.8.2 2.5 0 .6-.3.1-.5-1.3-.5-1.4 0-1.9.2-1.2.5zm30 0c.6.2 1.8.2 2.5 0 .6-.3.1-.5-1.3-.5-1.4 0-1.9.2-1.2.5zm20 0c.6.2 1.8.2 2.5 0 .6-.3.1-.5-1.3-.5-1.4 0-1.9.2-1.2.5zM297.2 349c-3 1.8-5 4.5-4.1 5.4.2.2 2.1-1.3 4.1-3.5 2.1-2.1 3.7-3.9 3.5-3.9-.1 0-1.7.9-3.5 2zm20-.5c-1.8.8-3 1-2.7.5 1-1.6-1.5-1.2-6 1-4.9 2.4-7.4 6.3-8.2 13l-.6 5.1 3.9-2.2 3.9-2.2-3.7 3.9c-3.6 3.8-3.8 4.3-3.8 10.7 0 3.7.3 6.7.8 6.7.4 0 2.1-.8 3.7-1.8 5.3-3.2 15-8.5 14.5-8-.3.3-4.3 3.8-9 7.7l-8.5 7.2-.5 6.3c-.5 6.2-.4 6.4 1.5 5.4 3.6-1.9 60.7-34.9 76.4-44.2l15.4-9.1-7.5-.3c-7.3-.3-7.7-.2-15.2 4.3-4.2 2.5-7.8 4.5-8 4.5-.4 0-17.1 9.4-23.3 13.2-1.8 1.1-3.3 1.8-3.3 1.5 0-.2 6.1-5.5 13.5-11.8l13.6-11.4-7.5-.3-7.5-.3-13.8 7.7c-7.6 4.2-14.2 8-14.8 8.5-.5.5-1.3.9-1.8.9s2.6-3.7 6.8-8.3l7.7-8.2-3.9-.7c-5.7-1-8.5-.9-12.1.7z"/><path d="M417 351.3c-4.6 2.5-270 155.5-281 162-5.4 3.1-2.9 1.1 15.5-12.8 9.4-7 17.6-13.4 18.4-14 1.1-1-.4-1.2-7.5-.8-7.3.4-9.9 1-14.4 3.4-3 1.6-4.6 2.3-3.5 1.5 1.1-.8 2.9-2.1 3.9-2.9 1.8-1.3 1.2-1.5-5.5-2.1l-7.4-.7-18.4 10.6L98.8 506l5-5.7c2.8-3.2 7.3-8 10.1-10.8 2.8-2.7 5.1-5.3 5.1-5.7 0-.4-3-.8-6.8-.8-6.2 0-7.3.3-15.2 4.9-4.6 2.7-8.6 4.8-8.8 4.6-.2-.2.5-1.7 1.7-3.3 2.7-3.8 2.7-4.6-.1-3.1-6.5 3.3-10.4 9.6-12.2 19.7l-.6 3.4 6.8-3.7 6.7-3.7-6.7 6.8-6.6 6.9 1.1 11.6 1.1 11.6 14.3-8.3c7.9-4.6 14.3-8.2 14.3-8 0 .2-6.5 5.2-14.5 11.2l-14.6 10.9.5 4.9c.3 2.7.7 5 .9 5.3.2.2 26.2-14.6 57.8-32.8 31.6-18.2 66.4-38.3 77.4-44.6 11-6.3 21.6-12.4 23.5-13.6 1.9-1.1 3.1-1.5 2.5-1-.8.9-127.5 81.5-151 96.1l-5 3.1 3.7 1.5c2.1.9 4.8 1.6 6 1.6 1.3 0 34.7-18.7 74.3-41.6 39.6-22.8 74.4-42.9 77.3-44.5 15.1-8.7-1.5 2-64.8 41.7l-70 43.9 8 .3 8 .3 16.8-9.7c9.2-5.3 17-9.9 17.5-10.1.4-.2.7-.2.7 0 0 .3-6 4.1-13.3 8.5-19.3 11.8-18.7 11.1-9.2 11.2h8l64.5-37.3c72.3-41.8 76.9-44.4 75.5-43-.5.5-28.7 18.2-62.5 39.3-33.8 21.1-62.2 38.9-63 39.6-1.2 1.2-.2 1.4 6.4 1.4h7.8l40.1-23.2c77-44.3 116.2-67 120.5-69.4 2.3-1.4 4.2-2.3 4.2-2.1 0 .3-32.7 21.1-72.7 46.2-40.1 25.2-73.5 46.4-74.3 47.2-1.2 1.1-.2 1.3 6.5 1.3h8l35.5-20.6c19.5-11.3 38-21.9 41-23.6 12.8-7.2 1.2.3-33 21.3l-36.4 22.4 8 .3 8 .3 66.9-38.7c36.9-21.2 69-39.8 71.5-41.2 12.7-7.2-3.3 3.2-59.5 38.8-34.1 21.5-62.4 39.6-62.9 40.1-1.8 1.7 14.2 1 17.7-.8 3-1.5 3.1-1.5 1.8 0-1.2 1.6-.7 1.7 6.3 1.7 6.5 0 8.5-.4 12.4-2.6l4.7-2.7-3 2.6-3 2.6 7.8.1h7.7l18.8-10.8c36.6-21.2 85.7-49.5 86.7-50 4.7-2.4-7.3 5.6-45 29.8-24.2 15.5-44.7 28.8-45.5 29.6-1.2 1.2-.3 1.4 6.3 1.4h7.8l26.2-15.1c14.4-8.3 27.7-16 29.5-17.1 1.7-1.1 3.2-1.7 3.2-1.5 0 .3-11.6 7.9-25.7 16.8l-25.8 16.4 8.4.3c4.5.2 8.8-.1 9.4-.6.7-.5 11.8-7 24.7-14.4 12.9-7.5 25.2-14.6 27.3-15.8 2-1.2 3.7-2 3.7-1.7 0 .3-11 7.6-24.5 16.3L362 564.5l8 .3 7.9.3 11.9-6.9c14-8.2 16.2-9.4 16.2-8.9 0 .2-5.3 3.7-11.7 7.8l-11.7 7.4 8.1.3 8.1.3 11.8-6.9c6.6-3.8 22.7-13.1 35.9-20.7 13.2-7.5 25.6-14.7 27.5-15.8 7.2-4.2.7.6-29.3 21.4l-30.8 21.4 7.9.3 7.9.3 31.4-18.2c17.3-9.9 32.3-18.5 33.4-19.1 1.7-.8 1.8-.7.4.4-.9.7-12.4 9.2-25.7 18.8l-24 17.5 7.9.3 7.9.3 16.7-9.7c9.3-5.3 17.3-9.9 17.8-10.2 2.6-1.4-1.4 1.7-13.1 10.4l-12.8 9.4h16.5l16.7-9.6c9.2-5.3 17-9.9 17.5-10.1 2.5-1.4-.7 1.5-10.8 9.8l-11.6 9.4 7.9.3 8 .3 14.8-8.6c16-9.3 16-9.4 4 3.2l-5 5.3h8.2c6.1 0 9-.4 11-1.7 2.6-1.7 2.6-1.7 1.3 0-1.2 1.5-1.1 1.7 1.2 1.7 7 0 10.7-4.4 11.5-13.8l.5-6.4-2.9 1.8-2.9 1.8 2.8-3c2.4-2.7 2.7-3.7 2.7-10.3v-7.3l-3.5 2.1c-1.9 1.2-5.1 3-7 4.2-5.3 3.2-4.2 1.7 3.5-4.5l7-5.7v-12.1l-3.2 2c-7.6 4.5-12.8 7.4-12.8 7 0-.3 3.6-3.1 8-6.2l8-5.8v-5.4c0-3-.2-5.4-.4-5.4-.3 0-9.2 5-19.8 11.1-10.6 6.1-19.7 11.4-20.3 11.6-1.8.8 2.6-2.5 21.8-16.4l18.7-13.6v-5.4c0-2.9-.2-5.3-.5-5.3-.5 0-41 23.2-49.2 28.2-8.5 5.1-1.1-.4 23.2-17.3l26.5-18.4v-5.3c0-5.1-.6-6.1-2.5-4.4-1.6 1.4-10.5 6.3-10.5 5.8 0-.2 2.9-2.3 6.5-4.5l6.5-4.1v-5c0-2.8-.2-5-.4-5-.3 0-9.2 5-19.8 11.1-28.1 16.2-28.1 16.1-.2-2l19.9-12.9.3-5.1c.2-2.8.1-5.1-.3-5.1s-18 10-39.7 22.7c-.5.2-.8.2-.8 0s9.2-6.2 20.5-13.3l20.4-12.9.1-5.3c0-2.9-.3-5.1-.7-4.9-.5.3-18.6 10.7-40.3 23.2-21.7 12.6-40.5 23.5-41.7 24.3-1.3.8-2.3 1.2-2.3 1 0-.3 19.1-12.9 42.5-27.9l42.5-27.4v-15.8c0-8.6-.2-15.7-.6-15.7-.4 0-87.3 49.9-115.4 66.3-1.9 1.1-3 1.6-2.5 1 .6-.6 15.6-10.3 33.5-21.6 17.9-11.2 44.2-27.9 58.5-37l26-16.4.3-5.2c.2-2.8.1-5.1-.1-5.1s-14.1 7.9-30.8 17.6c-32.7 18.9-34.9 20.2-33.4 18.7.6-.6 15.2-9.7 32.5-20.3 17.3-10.6 31.6-19.4 31.8-19.6.2-.1-.5-2-1.5-4.3l-1.8-4-71 41c-100.1 57.8-101 58.3-41.5 20.9 91.3-57.5 104-65.5 104-66.1 0-.4-3-.9-6.7-1.1-6.3-.4-7.2-.2-12 2.9-2.9 1.8-5.5 3.3-5.8 3.3-.4 0-107.9 61.7-127.5 73.3-1.9 1.1-3 1.5-2.5 1 .6-.6 19.9-12.9 43-27.3s41.9-26.6 41.7-27.2c-.1-.5.2-.7.7-.3.6.3 10.5-5.4 22.2-12.7l21.1-13.3-7.5-.3c-7.4-.3-7.6-.2-17.3 5.1-9.4 5.1-18.9 10.6-26.1 14.9-1.8 1.1-3.3 1.7-3.3 1.5 0-.3 6.4-4.4 14.3-9.2 7.8-4.7 15.3-9.5 16.7-10.5l2.5-2H495c-5.7 0-8.3.5-10.6 1.9-1.8 1.1-6.5 3.7-10.5 5.9-6.8 3.7-132.3 75.9-139.6 80.4-1.8 1.1-3.3 1.7-3.3 1.4 0-.2 3.9-2.9 8.8-5.9 4.8-3 30.8-19.3 57.7-36.2 27-16.9 54.8-34.4 62-38.9l13-8.1-7.8-.3c-7.7-.3-7.7-.3-16.2 4.8-4.7 2.7-8.8 5-9.1 5-1 0-31.9 18.2-32.5 19.2-.3.5-.9.9-1.3.8-.4-.2-28.7 15.9-62.8 35.6-34.2 19.8-63.3 36.5-64.7 37.3-4.7 2.5-.7-.5 7.9-5.9 28.7-17.9 150.7-95.3 151.5-96.1.5-.5-2.3-.9-7-.8-6.9.1-8.7.5-13.5 3.2zm51 19.2c0 .2-1 .9-2.2 1.5-2.2 1.1-2.2 1-.4-.4 2.1-1.7 2.6-1.9 2.6-1.1zm27 33c0 .2-1 .9-2.2 1.5-2.2 1.1-2.2 1-.4-.4 2.1-1.7 2.6-1.9 2.6-1.1zm-91 39c0 .2-1 .9-2.2 1.5-2.2 1.1-2.2 1-.4-.4 2.1-1.7 2.6-1.9 2.6-1.1zm-157 17c0 .2-1 .9-2.2 1.5-2.2 1.1-2.2 1-.4-.4 2.1-1.7 2.6-1.9 2.6-1.1zm100 8c0 .2-1 .9-2.2 1.5-2.2 1.1-2.2 1-.4-.4 2.1-1.7 2.6-1.9 2.6-1.1zm-179 75c0 .2-1 .9-2.2 1.5-2.2 1.1-2.2 1-.4-.4 2.1-1.7 2.6-1.9 2.6-1.1zm128 15c0 .2-1 .9-2.2 1.5-2.2 1.1-2.2 1-.4-.4 2.1-1.7 2.6-1.9 2.6-1.1zm-22 2c0 .2-1 .9-2.2 1.5-2.2 1.1-2.2 1-.4-.4 2.1-1.7 2.6-1.9 2.6-1.1z"/><path d="M287 410c-1.3.8-1.2 1 .3 1 .9 0 1.7-.5 1.7-1 0-1.2-.1-1.2-2 0zm-91.5 2.1-3 2.1 2.9-.7c1.5-.3 4.2-.9 5.8-1.2 2.1-.4 2.6-.8 1.6-1.4-2.1-1.4-4.1-1-7.3 1.2zm25.3-1.4c.6.2 1.8.2 2.5 0 .6-.3.1-.5-1.3-.5-1.4 0-1.9.2-1.2.5zm32.5 0c.9.2 2.3.2 3 0 .6-.3-.1-.5-1.8-.5-1.6 0-2.2.2-1.2.5zm35.1 4.4c-2.3 1-6.8 2.1-10 2.5-5.2.6-8.6 2.2-27.9 13.4-12.1 7-23.1 13.2-24.5 13.9l-2.5 1.2 2.1-1.8c26-21.9 30.2-25.8 29.1-26.5-.7-.4-4-.8-7.3-.9-5.8-.2-6.4 0-19.5 7.6-7.4 4.2-15 8.7-16.9 9.8-2.6 1.6-1.2-.3 5.8-7.9 5-5.6 9.2-10.4 9.2-10.8 0-.3-3-.6-6.7-.6-5.7 0-7.4.5-13.1 3.6l-6.5 3.7 2.2-3.1 2.1-3.1-2.9.9c-4.8 1.3-8.8 4.1-10.1 6.9-1.3 2.8-2.7 14.1-1.7 14.1.3 0 2.3-1 4.4-2.2l3.8-2.3-4.1 5c-4 4.9-4.1 5.1-3.5 11.2l.6 6.2 8-4.5c4.4-2.5 9.6-5.5 11.5-6.7l3.4-2.1-1.9 2.7c-1.1 1.4-2.6 2.9-3.3 3.1-.7.3-4.9 3.6-9.3 7.3-5.5 4.8-7.9 7.5-7.9 9 0 3.2.1 2.8-1.5 7.4-.8 2.3-1.5 4.3-1.5 4.5 0 .2 7.1-3.8 15.8-8.8 8.6-5 31.7-18.3 51.2-29.6 34.9-20.1 39-22.7 39-24.4 0-1.1-.9-.9-5.6 1.3zM80.5 482.6c-7.7 4.4-9.5 5.8-9.5 7.8 0 .6 1.2-.2 2.8-1.6 3.2-3 8.1-5.7 13.5-7.3 3.8-1.1 5-2.8 2.5-3.3-.7-.1-4.9 1.8-9.3 4.4zm66-3.6c-.4.6.5 1 2 1s2.4-.4 2-1c-.3-.6-1.2-1-2-1s-1.7.4-2 1zm19.5 0c-1.1.7-.7 1 1.8 1 2 0 3.1-.4 2.7-1-.8-1.3-2.6-1.3-4.5 0zm384 91-2.5.8 2.5.1c1.4 0 3.2-.4 4-.9 1.3-.9 1.3-1 0-.9-.8.1-2.6.5-4 .9zm-435.7.7c.9.2 2.5.2 3.5 0 .9-.3.1-.5-1.8-.5-1.9 0-2.7.2-1.7.5zm21 0c.9.2 2.3.2 3 0 .6-.3-.1-.5-1.8-.5-1.6 0-2.2.2-1.2.5zm28 0c.9.2 2.5.2 3.5 0 .9-.3.1-.5-1.8-.5-1.9 0-2.7.2-1.7.5zm32 0c.9.2 2.5.2 3.5 0 .9-.3.1-.5-1.8-.5-1.9 0-2.7.2-1.7.5zm24 0c.9.2 2.3.2 3 0 .6-.3-.1-.5-1.8-.5-1.6 0-2.2.2-1.2.5zm30 0c.9.2 2.5.2 3.5 0 .9-.3.1-.5-1.8-.5-1.9 0-2.7.2-1.7.5zm19 0c.9.2 2.5.2 3.5 0 .9-.3.1-.5-1.8-.5-1.9 0-2.7.2-1.7.5zm19 0c.9.2 2.3.2 3 0 .6-.3-.1-.5-1.8-.5-1.6 0-2.2.2-1.2.5zm29 0c.9.2 2.5.2 3.5 0 .9-.3.1-.5-1.8-.5-1.9 0-2.7.2-1.7.5zm24 0c.9.2 2.3.2 3 0 .6-.3-.1-.5-1.8-.5-1.6 0-2.2.2-1.2.5zm24 0c.9.2 2.3.2 3 0 .6-.3-.1-.5-1.8-.5-1.6 0-2.2.2-1.2.5zm21 0c.9.2 2.3.2 3 0 .6-.3-.1-.5-1.8-.5-1.6 0-2.2.2-1.2.5zm31 0c.9.2 2.3.2 3 0 .6-.3-.1-.5-1.8-.5-1.6 0-2.2.2-1.2.5zm31 0c.9.2 2.5.2 3.5 0 .9-.3.1-.5-1.8-.5-1.9 0-2.7.2-1.7.5zm25 0c.9.2 2.5.2 3.5 0 .9-.3.1-.5-1.8-.5-1.9 0-2.7.2-1.7.5zm28 0c.9.2 2.3.2 3 0 .6-.3-.1-.5-1.8-.5-1.6 0-2.2.2-1.2.5zm30 0c.9.2 2.3.2 3 0 .6-.3-.1-.5-1.8-.5-1.6 0-2.2.2-1.2.5z"/></g><path d="M278.3 93.7c1.5.2 3.7.2 5 0 1.2-.2 0-.4-2.8-.4-2.7 0-3.8.2-2.2.4zm74 0c.9.2 2.5.2 3.5 0 .9-.3.1-.5-1.8-.5-1.9 0-2.7.2-1.7.5zm53 213c.9.2 2.3.2 3 0 .6-.3-.1-.5-1.8-.5-1.6 0-2.2.2-1.2.5zm8.5 42c1.2.2 3 .2 4 0 .9-.3-.1-.5-2.3-.4-2.2 0-3 .2-1.7.4zm-143.5 63c.9.2 2.3.2 3 0 .6-.3-.1-.5-1.8-.5-1.6 0-2.2.2-1.2.5z" fill="#2D2D2D" fill-opacity=".07"/><path d="M328.3 347.7c.9.2 2.3.2 3 0 .6-.3-.1-.5-1.8-.5-1.6 0-2.2.2-1.2.5zm211 1c.9.2 2.3.2 3 0 .6-.3-.1-.5-1.8-.5-1.6 0-2.2.2-1.2.5zm-242.4 2c-1.3 1.6-1.2 1.7.4.4 1.6-1.3 2.1-2.1 1.3-2.1-.2 0-1 .8-1.7 1.7zm-12.1 61c.7.3 1.6.2 1.9-.1.4-.3-.2-.6-1.3-.5-1.1 0-1.4.3-.6.6zm-94.7 53.9c0 1.1.3 1.4.6.6.3-.7.2-1.6-.1-1.9-.3-.4-.6.2-.5 1.3zm-47.3 20.1c.7.3 1.6.2 1.9-.1.4-.3-.2-.6-1.3-.5-1.1 0-1.4.3-.6.6zm-58.9 4c-1.3 1.6-1.2 1.7.4.4.9-.7 1.7-1.5 1.7-1.7 0-.8-.8-.3-2.1 1.3z" fill="#336"/><path d="M573.2 401c0 1.4.2 1.9.5 1.2.2-.6.2-1.8 0-2.5-.3-.6-.5-.1-.5 1.3zm.1 6.5c0 2.2.2 3 .4 1.7.2-1.2.2-3 0-4-.3-.9-.5.1-.4 2.3z" fill="#2E2E2E" fill-opacity=".04"/></svg>